<mxfile host="app.diagrams.net" agent="Mozilla/5.0 (Windows NT 10.0; Win64; x64) AppleWebKit/537.36 (KHTML, like Gecko) Chrome/131.0.0.0 Safari/537.36" version="26.0.6">
  <diagram name="Trang-1" id="ij3CzfIAxNhXN92rrGaG">
    <mxGraphModel dx="3163" dy="1985" grid="1" gridSize="10" guides="1" tooltips="1" connect="1" arrows="1" fold="1" page="1" pageScale="1" pageWidth="827" pageHeight="1169" math="0" shadow="0">
      <root>
        <mxCell id="0" />
        <mxCell id="1" parent="0" />
        <mxCell id="A8AKB8r_Vr3IPcr5D05u-6" value="" style="endArrow=none;html=1;rounded=0;exitX=0.5;exitY=0;exitDx=0;exitDy=0;entryX=0.5;entryY=1;entryDx=0;entryDy=0;" parent="1" source="A8AKB8r_Vr3IPcr5D05u-7" target="A8AKB8r_Vr3IPcr5D05u-12" edge="1">
          <mxGeometry width="50" height="50" relative="1" as="geometry">
            <mxPoint x="-80" y="350" as="sourcePoint" />
            <mxPoint x="-120" y="310" as="targetPoint" />
          </mxGeometry>
        </mxCell>
        <mxCell id="A8AKB8r_Vr3IPcr5D05u-7" value="customers" style="rounded=0;whiteSpace=wrap;html=1;" parent="1" vertex="1">
          <mxGeometry x="-140" y="370" width="120" height="60" as="geometry" />
        </mxCell>
        <mxCell id="A8AKB8r_Vr3IPcr5D05u-8" value="" style="endArrow=none;html=1;rounded=0;exitX=0.5;exitY=1;exitDx=0;exitDy=0;entryX=0.5;entryY=0;entryDx=0;entryDy=0;" parent="1" source="A8AKB8r_Vr3IPcr5D05u-7" target="A8AKB8r_Vr3IPcr5D05u-11" edge="1">
          <mxGeometry width="50" height="50" relative="1" as="geometry">
            <mxPoint x="-45" y="460" as="sourcePoint" />
            <mxPoint x="-80" y="320" as="targetPoint" />
          </mxGeometry>
        </mxCell>
        <mxCell id="A8AKB8r_Vr3IPcr5D05u-11" value="full_name" style="ellipse;whiteSpace=wrap;html=1;align=center;" parent="1" vertex="1">
          <mxGeometry x="-60" y="507.5" width="100" height="50" as="geometry" />
        </mxCell>
        <mxCell id="A8AKB8r_Vr3IPcr5D05u-12" value="id" style="ellipse;whiteSpace=wrap;html=1;align=center;fontStyle=4;" parent="1" vertex="1">
          <mxGeometry x="-290" y="290" width="100" height="40" as="geometry" />
        </mxCell>
        <mxCell id="A8AKB8r_Vr3IPcr5D05u-13" value="email" style="ellipse;whiteSpace=wrap;html=1;align=center;" parent="1" vertex="1">
          <mxGeometry x="-100" y="275" width="100" height="45" as="geometry" />
        </mxCell>
        <mxCell id="A8AKB8r_Vr3IPcr5D05u-14" value="" style="endArrow=none;html=1;rounded=0;exitX=0.5;exitY=0;exitDx=0;exitDy=0;entryX=0.5;entryY=1;entryDx=0;entryDy=0;" parent="1" source="A8AKB8r_Vr3IPcr5D05u-7" target="A8AKB8r_Vr3IPcr5D05u-13" edge="1">
          <mxGeometry width="50" height="50" relative="1" as="geometry">
            <mxPoint x="190" y="420" as="sourcePoint" />
            <mxPoint x="-30" y="320" as="targetPoint" />
          </mxGeometry>
        </mxCell>
        <mxCell id="A8AKB8r_Vr3IPcr5D05u-15" value="phone_number" style="ellipse;whiteSpace=wrap;html=1;" parent="1" vertex="1">
          <mxGeometry x="-220" y="497.5" width="120" height="60" as="geometry" />
        </mxCell>
        <mxCell id="A8AKB8r_Vr3IPcr5D05u-16" value="" style="endArrow=none;html=1;rounded=0;exitX=0.5;exitY=1;exitDx=0;exitDy=0;entryX=0.5;entryY=0;entryDx=0;entryDy=0;" parent="1" source="A8AKB8r_Vr3IPcr5D05u-7" target="A8AKB8r_Vr3IPcr5D05u-15" edge="1">
          <mxGeometry width="50" height="50" relative="1" as="geometry">
            <mxPoint x="190" y="420" as="sourcePoint" />
            <mxPoint x="240" y="370" as="targetPoint" />
          </mxGeometry>
        </mxCell>
        <mxCell id="A8AKB8r_Vr3IPcr5D05u-17" value="books" style="rounded=0;whiteSpace=wrap;html=1;" parent="1" vertex="1">
          <mxGeometry x="580" y="30" width="120" height="60" as="geometry" />
        </mxCell>
        <mxCell id="A8AKB8r_Vr3IPcr5D05u-18" value="" style="endArrow=none;html=1;rounded=0;exitX=0.5;exitY=0;exitDx=0;exitDy=0;entryX=0.5;entryY=1;entryDx=0;entryDy=0;" parent="1" source="A8AKB8r_Vr3IPcr5D05u-17" target="A8AKB8r_Vr3IPcr5D05u-20" edge="1">
          <mxGeometry width="50" height="50" relative="1" as="geometry">
            <mxPoint x="390" y="420" as="sourcePoint" />
            <mxPoint x="580" y="310" as="targetPoint" />
          </mxGeometry>
        </mxCell>
        <mxCell id="A8AKB8r_Vr3IPcr5D05u-20" value="id" style="ellipse;whiteSpace=wrap;html=1;align=center;fontStyle=4;" parent="1" vertex="1">
          <mxGeometry x="520" y="-72.5" width="100" height="52.5" as="geometry" />
        </mxCell>
        <mxCell id="A8AKB8r_Vr3IPcr5D05u-21" value="name" style="ellipse;whiteSpace=wrap;html=1;align=center;" parent="1" vertex="1">
          <mxGeometry x="670" y="-70" width="100" height="53.75" as="geometry" />
        </mxCell>
        <mxCell id="A8AKB8r_Vr3IPcr5D05u-24" value="" style="endArrow=none;html=1;rounded=0;exitX=0.5;exitY=0;exitDx=0;exitDy=0;entryX=0.5;entryY=1;entryDx=0;entryDy=0;" parent="1" source="A8AKB8r_Vr3IPcr5D05u-17" target="A8AKB8r_Vr3IPcr5D05u-21" edge="1">
          <mxGeometry width="50" height="50" relative="1" as="geometry">
            <mxPoint x="390" y="420" as="sourcePoint" />
            <mxPoint x="440" y="370" as="targetPoint" />
            <Array as="points" />
          </mxGeometry>
        </mxCell>
        <mxCell id="A8AKB8r_Vr3IPcr5D05u-28" value="" style="endArrow=none;html=1;rounded=0;exitX=1;exitY=0.5;exitDx=0;exitDy=0;entryX=0;entryY=0.5;entryDx=0;entryDy=0;" parent="1" source="A8AKB8r_Vr3IPcr5D05u-7" target="moYUNaS-9ngvNVDCKAQK-4" edge="1">
          <mxGeometry width="50" height="50" relative="1" as="geometry">
            <mxPoint x="390" y="420" as="sourcePoint" />
            <mxPoint x="190" y="420" as="targetPoint" />
          </mxGeometry>
        </mxCell>
        <mxCell id="A8AKB8r_Vr3IPcr5D05u-29" value="" style="endArrow=none;html=1;rounded=0;exitX=1;exitY=0.5;exitDx=0;exitDy=0;entryX=0.5;entryY=1;entryDx=0;entryDy=0;" parent="1" source="moYUNaS-9ngvNVDCKAQK-4" target="A8AKB8r_Vr3IPcr5D05u-17" edge="1">
          <mxGeometry width="50" height="50" relative="1" as="geometry">
            <mxPoint x="324.99199999999973" y="390.97000000000025" as="sourcePoint" />
            <mxPoint x="640" y="232.5" as="targetPoint" />
            <Array as="points">
              <mxPoint x="640" y="400" />
            </Array>
          </mxGeometry>
        </mxCell>
        <mxCell id="A8AKB8r_Vr3IPcr5D05u-30" value="" style="endArrow=none;html=1;rounded=0;entryX=0.5;entryY=0;entryDx=0;entryDy=0;exitX=1;exitY=1;exitDx=0;exitDy=0;" parent="1" source="moYUNaS-9ngvNVDCKAQK-4" target="A8AKB8r_Vr3IPcr5D05u-31" edge="1">
          <mxGeometry width="50" height="50" relative="1" as="geometry">
            <mxPoint x="263" y="435" as="sourcePoint" />
            <mxPoint x="263" y="530" as="targetPoint" />
          </mxGeometry>
        </mxCell>
        <mxCell id="A8AKB8r_Vr3IPcr5D05u-31" value="number_of_books" style="ellipse;whiteSpace=wrap;html=1;" parent="1" vertex="1">
          <mxGeometry x="363" y="456.25" width="120" height="52.5" as="geometry" />
        </mxCell>
        <mxCell id="A8AKB8r_Vr3IPcr5D05u-34" value="id" style="ellipse;whiteSpace=wrap;html=1;align=center;fontStyle=4;" parent="1" vertex="1">
          <mxGeometry x="85" y="208.75" width="100" height="47.5" as="geometry" />
        </mxCell>
        <mxCell id="A8AKB8r_Vr3IPcr5D05u-37" value="" style="endArrow=none;html=1;rounded=0;exitX=0.5;exitY=0;exitDx=0;exitDy=0;entryX=0.5;entryY=1;entryDx=0;entryDy=0;" parent="1" source="moYUNaS-9ngvNVDCKAQK-4" target="A8AKB8r_Vr3IPcr5D05u-34" edge="1">
          <mxGeometry width="50" height="50" relative="1" as="geometry">
            <mxPoint x="263" y="365" as="sourcePoint" />
            <mxPoint x="440" y="370" as="targetPoint" />
          </mxGeometry>
        </mxCell>
        <mxCell id="A8AKB8r_Vr3IPcr5D05u-39" value="n" style="text;html=1;align=center;verticalAlign=middle;whiteSpace=wrap;rounded=0;" parent="1" vertex="1">
          <mxGeometry x="133" y="362.5" width="60" height="30" as="geometry" />
        </mxCell>
        <mxCell id="A8AKB8r_Vr3IPcr5D05u-40" value="1" style="text;html=1;align=center;verticalAlign=middle;whiteSpace=wrap;rounded=0;" parent="1" vertex="1">
          <mxGeometry x="-30" y="370" width="60" height="30" as="geometry" />
        </mxCell>
        <mxCell id="A8AKB8r_Vr3IPcr5D05u-41" value="1" style="text;html=1;align=center;verticalAlign=middle;whiteSpace=wrap;rounded=0;" parent="1" vertex="1">
          <mxGeometry x="590" y="98.75" width="60" height="30" as="geometry" />
        </mxCell>
        <mxCell id="A8AKB8r_Vr3IPcr5D05u-42" value="n" style="text;html=1;align=center;verticalAlign=middle;whiteSpace=wrap;rounded=0;" parent="1" vertex="1">
          <mxGeometry x="313" y="362.5" width="60" height="30" as="geometry" />
        </mxCell>
        <mxCell id="A8AKB8r_Vr3IPcr5D05u-45" value="transaction_date" style="ellipse;whiteSpace=wrap;html=1;" parent="1" vertex="1">
          <mxGeometry x="65" y="455" width="120" height="52.5" as="geometry" />
        </mxCell>
        <mxCell id="A8AKB8r_Vr3IPcr5D05u-46" value="&#xa;&lt;span style=&quot;color: rgb(0, 0, 0); font-family: Helvetica; font-size: 12px; font-style: normal; font-variant-ligatures: normal; font-variant-caps: normal; font-weight: 400; letter-spacing: normal; orphans: 2; text-align: left; text-indent: 0px; text-transform: none; widows: 2; word-spacing: 0px; -webkit-text-stroke-width: 0px; white-space: normal; background-color: rgb(251, 251, 251); text-decoration-thickness: initial; text-decoration-style: initial; text-decoration-color: initial; display: inline !important; float: none;&quot;&gt;expired_date&lt;/span&gt;&#xa;&#xa;" style="ellipse;whiteSpace=wrap;html=1;" parent="1" vertex="1">
          <mxGeometry x="204.5" y="185" width="120" height="62.5" as="geometry" />
        </mxCell>
        <mxCell id="A8AKB8r_Vr3IPcr5D05u-47" value="" style="endArrow=none;html=1;rounded=0;exitX=0;exitY=1;exitDx=0;exitDy=0;entryX=0.5;entryY=0;entryDx=0;entryDy=0;" parent="1" source="moYUNaS-9ngvNVDCKAQK-4" target="A8AKB8r_Vr3IPcr5D05u-45" edge="1">
          <mxGeometry width="50" height="50" relative="1" as="geometry">
            <mxPoint x="240" y="460" as="sourcePoint" />
            <mxPoint x="107" y="518.75" as="targetPoint" />
          </mxGeometry>
        </mxCell>
        <mxCell id="A8AKB8r_Vr3IPcr5D05u-48" value="" style="endArrow=none;html=1;rounded=0;entryX=0.5;entryY=1;entryDx=0;entryDy=0;exitX=0.499;exitY=0.07;exitDx=0;exitDy=0;exitPerimeter=0;" parent="1" source="moYUNaS-9ngvNVDCKAQK-4" target="A8AKB8r_Vr3IPcr5D05u-46" edge="1">
          <mxGeometry width="50" height="50" relative="1" as="geometry">
            <mxPoint x="263" y="365" as="sourcePoint" />
            <mxPoint x="190" y="620" as="targetPoint" />
          </mxGeometry>
        </mxCell>
        <mxCell id="A8AKB8r_Vr3IPcr5D05u-49" value="status" style="ellipse;whiteSpace=wrap;html=1;" parent="1" vertex="1">
          <mxGeometry x="330" y="210" width="120" height="56.25" as="geometry" />
        </mxCell>
        <mxCell id="A8AKB8r_Vr3IPcr5D05u-51" value="" style="endArrow=none;html=1;rounded=0;exitX=0.5;exitY=1;exitDx=0;exitDy=0;entryX=0.5;entryY=0;entryDx=0;entryDy=0;" parent="1" source="A8AKB8r_Vr3IPcr5D05u-49" target="moYUNaS-9ngvNVDCKAQK-4" edge="1">
          <mxGeometry width="50" height="50" relative="1" as="geometry">
            <mxPoint x="390" y="420" as="sourcePoint" />
            <mxPoint x="263" y="365" as="targetPoint" />
          </mxGeometry>
        </mxCell>
        <mxCell id="A8AKB8r_Vr3IPcr5D05u-53" value="&lt;font style=&quot;font-size: 18px;&quot;&gt;Luồng mượn sách&lt;/font&gt;" style="text;html=1;align=center;verticalAlign=middle;whiteSpace=wrap;rounded=0;" parent="1" vertex="1">
          <mxGeometry x="153" y="110" width="240" height="90" as="geometry" />
        </mxCell>
        <mxCell id="WysHFelrEb2VY1BGsdJK-2" value="notifications" style="rounded=0;whiteSpace=wrap;html=1;" parent="1" vertex="1">
          <mxGeometry x="204.5" y="680" width="120" height="60" as="geometry" />
        </mxCell>
        <mxCell id="WysHFelrEb2VY1BGsdJK-3" value="" style="endArrow=none;html=1;rounded=0;exitX=0.5;exitY=0;exitDx=0;exitDy=0;entryX=0.5;entryY=1;entryDx=0;entryDy=0;" parent="1" source="-W9-jeo1vUDW5sW8vt6r-41" target="moYUNaS-9ngvNVDCKAQK-4" edge="1">
          <mxGeometry width="50" height="50" relative="1" as="geometry">
            <mxPoint x="263" y="510" as="sourcePoint" />
            <mxPoint x="263" y="440" as="targetPoint" />
          </mxGeometry>
        </mxCell>
        <mxCell id="WysHFelrEb2VY1BGsdJK-5" value="" style="endArrow=none;html=1;rounded=0;exitX=0.5;exitY=1;exitDx=0;exitDy=0;entryX=0.5;entryY=0;entryDx=0;entryDy=0;" parent="1" source="WysHFelrEb2VY1BGsdJK-2" target="WysHFelrEb2VY1BGsdJK-9" edge="1">
          <mxGeometry width="50" height="50" relative="1" as="geometry">
            <mxPoint x="330" y="850" as="sourcePoint" />
            <mxPoint x="263" y="790" as="targetPoint" />
          </mxGeometry>
        </mxCell>
        <mxCell id="WysHFelrEb2VY1BGsdJK-7" value="content" style="ellipse;whiteSpace=wrap;html=1;" parent="1" vertex="1">
          <mxGeometry x="80" y="770" width="120" height="70" as="geometry" />
        </mxCell>
        <mxCell id="WysHFelrEb2VY1BGsdJK-9" value="id_transaction" style="ellipse;whiteSpace=wrap;html=1;" parent="1" vertex="1">
          <mxGeometry x="-50" y="770" width="120" height="70" as="geometry" />
        </mxCell>
        <mxCell id="WysHFelrEb2VY1BGsdJK-11" value="" style="endArrow=none;html=1;rounded=0;exitX=0.5;exitY=1;exitDx=0;exitDy=0;entryX=0.5;entryY=0;entryDx=0;entryDy=0;" parent="1" source="WysHFelrEb2VY1BGsdJK-2" target="WysHFelrEb2VY1BGsdJK-7" edge="1">
          <mxGeometry width="50" height="50" relative="1" as="geometry">
            <mxPoint x="290" y="730" as="sourcePoint" />
            <mxPoint x="340" y="680" as="targetPoint" />
          </mxGeometry>
        </mxCell>
        <mxCell id="WysHFelrEb2VY1BGsdJK-12" value="created_at" style="ellipse;whiteSpace=wrap;html=1;" parent="1" vertex="1">
          <mxGeometry x="323" y="770" width="120" height="70" as="geometry" />
        </mxCell>
        <mxCell id="WysHFelrEb2VY1BGsdJK-13" value="" style="endArrow=none;html=1;rounded=0;exitX=0.5;exitY=1;exitDx=0;exitDy=0;entryX=0.5;entryY=0;entryDx=0;entryDy=0;" parent="1" source="WysHFelrEb2VY1BGsdJK-2" target="WysHFelrEb2VY1BGsdJK-12" edge="1">
          <mxGeometry width="50" height="50" relative="1" as="geometry">
            <mxPoint x="290" y="730" as="sourcePoint" />
            <mxPoint x="340" y="680" as="targetPoint" />
          </mxGeometry>
        </mxCell>
        <mxCell id="WysHFelrEb2VY1BGsdJK-14" value="1" style="text;html=1;align=center;verticalAlign=middle;whiteSpace=wrap;rounded=0;" parent="1" vertex="1">
          <mxGeometry x="453" y="420" width="60" height="30" as="geometry" />
        </mxCell>
        <mxCell id="WysHFelrEb2VY1BGsdJK-15" value="1" style="text;html=1;align=center;verticalAlign=middle;whiteSpace=wrap;rounded=0;" parent="1" vertex="1">
          <mxGeometry x="243" y="640" width="60" height="30" as="geometry" />
        </mxCell>
        <mxCell id="WysHFelrEb2VY1BGsdJK-17" value="" style="endArrow=none;html=1;rounded=0;exitX=0.5;exitY=1;exitDx=0;exitDy=0;entryX=0;entryY=0.5;entryDx=0;entryDy=0;" parent="1" source="A8AKB8r_Vr3IPcr5D05u-7" target="-W9-jeo1vUDW5sW8vt6r-38" edge="1">
          <mxGeometry width="50" height="50" relative="1" as="geometry">
            <mxPoint x="120" y="630" as="sourcePoint" />
            <mxPoint x="-30" y="710" as="targetPoint" />
            <Array as="points">
              <mxPoint x="-80" y="710" />
            </Array>
          </mxGeometry>
        </mxCell>
        <mxCell id="WysHFelrEb2VY1BGsdJK-18" value="n" style="text;html=1;align=center;verticalAlign=middle;whiteSpace=wrap;rounded=0;" parent="1" vertex="1">
          <mxGeometry x="150" y="680" width="60" height="30" as="geometry" />
        </mxCell>
        <mxCell id="-W9-jeo1vUDW5sW8vt6r-1" value="accounts" style="rounded=0;whiteSpace=wrap;html=1;" parent="1" vertex="1">
          <mxGeometry x="-600" y="370" width="120" height="60" as="geometry" />
        </mxCell>
        <mxCell id="-W9-jeo1vUDW5sW8vt6r-2" value="&lt;span style=&quot;color: rgb(0, 0, 0); font-family: Helvetica; font-size: 18px; font-style: normal; font-variant-ligatures: normal; font-variant-caps: normal; font-weight: 400; letter-spacing: normal; orphans: 2; text-align: center; text-indent: 0px; text-transform: none; widows: 2; word-spacing: 0px; -webkit-text-stroke-width: 0px; white-space: normal; background-color: rgb(251, 251, 251); text-decoration-thickness: initial; text-decoration-style: initial; text-decoration-color: initial; display: inline !important; float: none;&quot;&gt;Luồng đăng kí thành viên&lt;/span&gt;" style="text;whiteSpace=wrap;html=1;" parent="1" vertex="1">
          <mxGeometry x="-653" y="142.5" width="240" height="90" as="geometry" />
        </mxCell>
        <mxCell id="-W9-jeo1vUDW5sW8vt6r-3" value="" style="endArrow=none;html=1;rounded=0;exitX=1;exitY=0.5;exitDx=0;exitDy=0;entryX=0;entryY=0.5;entryDx=0;entryDy=0;" parent="1" source="-W9-jeo1vUDW5sW8vt6r-1" target="-W9-jeo1vUDW5sW8vt6r-36" edge="1">
          <mxGeometry width="50" height="50" relative="1" as="geometry">
            <mxPoint x="-280" y="530" as="sourcePoint" />
            <mxPoint x="-350" y="400" as="targetPoint" />
          </mxGeometry>
        </mxCell>
        <mxCell id="-W9-jeo1vUDW5sW8vt6r-4" value="1" style="text;html=1;align=center;verticalAlign=middle;whiteSpace=wrap;rounded=0;" parent="1" vertex="1">
          <mxGeometry x="-190" y="370" width="60" height="30" as="geometry" />
        </mxCell>
        <mxCell id="-W9-jeo1vUDW5sW8vt6r-5" value="1" style="text;html=1;align=center;verticalAlign=middle;whiteSpace=wrap;rounded=0;" parent="1" vertex="1">
          <mxGeometry x="-490" y="370" width="60" height="30" as="geometry" />
        </mxCell>
        <mxCell id="-W9-jeo1vUDW5sW8vt6r-6" value="id_user" style="ellipse;whiteSpace=wrap;html=1;" parent="1" vertex="1">
          <mxGeometry x="-750" y="240" width="120" height="58.75" as="geometry" />
        </mxCell>
        <mxCell id="-W9-jeo1vUDW5sW8vt6r-8" value="password" style="ellipse;whiteSpace=wrap;html=1;" parent="1" vertex="1">
          <mxGeometry x="-450" y="240" width="120" height="58.75" as="geometry" />
        </mxCell>
        <mxCell id="-W9-jeo1vUDW5sW8vt6r-9" value="username" style="ellipse;whiteSpace=wrap;html=1;" parent="1" vertex="1">
          <mxGeometry x="-600" y="240" width="120" height="58.75" as="geometry" />
        </mxCell>
        <mxCell id="-W9-jeo1vUDW5sW8vt6r-11" value="status" style="ellipse;whiteSpace=wrap;html=1;" parent="1" vertex="1">
          <mxGeometry x="-600" y="520" width="120" height="60" as="geometry" />
        </mxCell>
        <mxCell id="-W9-jeo1vUDW5sW8vt6r-12" value="" style="endArrow=none;html=1;rounded=0;exitX=0.5;exitY=0;exitDx=0;exitDy=0;entryX=0.5;entryY=1;entryDx=0;entryDy=0;" parent="1" source="-W9-jeo1vUDW5sW8vt6r-1" target="-W9-jeo1vUDW5sW8vt6r-9" edge="1">
          <mxGeometry width="50" height="50" relative="1" as="geometry">
            <mxPoint x="-280" y="430" as="sourcePoint" />
            <mxPoint x="-230" y="380" as="targetPoint" />
          </mxGeometry>
        </mxCell>
        <mxCell id="-W9-jeo1vUDW5sW8vt6r-13" value="" style="endArrow=none;html=1;rounded=0;exitX=0.5;exitY=1;exitDx=0;exitDy=0;entryX=0.5;entryY=0;entryDx=0;entryDy=0;" parent="1" source="-W9-jeo1vUDW5sW8vt6r-1" target="-W9-jeo1vUDW5sW8vt6r-11" edge="1">
          <mxGeometry width="50" height="50" relative="1" as="geometry">
            <mxPoint x="-280" y="430" as="sourcePoint" />
            <mxPoint x="-230" y="380" as="targetPoint" />
          </mxGeometry>
        </mxCell>
        <mxCell id="-W9-jeo1vUDW5sW8vt6r-14" value="" style="endArrow=none;html=1;rounded=0;exitX=0.5;exitY=0;exitDx=0;exitDy=0;entryX=0.5;entryY=1;entryDx=0;entryDy=0;" parent="1" source="-W9-jeo1vUDW5sW8vt6r-1" target="-W9-jeo1vUDW5sW8vt6r-8" edge="1">
          <mxGeometry width="50" height="50" relative="1" as="geometry">
            <mxPoint x="-280" y="430" as="sourcePoint" />
            <mxPoint x="-230" y="380" as="targetPoint" />
          </mxGeometry>
        </mxCell>
        <mxCell id="-W9-jeo1vUDW5sW8vt6r-16" value="" style="endArrow=none;html=1;rounded=0;exitX=0.5;exitY=0;exitDx=0;exitDy=0;entryX=0.5;entryY=1;entryDx=0;entryDy=0;" parent="1" source="-W9-jeo1vUDW5sW8vt6r-1" target="-W9-jeo1vUDW5sW8vt6r-6" edge="1">
          <mxGeometry width="50" height="50" relative="1" as="geometry">
            <mxPoint x="-530" y="380" as="sourcePoint" />
            <mxPoint x="-370" y="299" as="targetPoint" />
          </mxGeometry>
        </mxCell>
        <mxCell id="-W9-jeo1vUDW5sW8vt6r-20" value="admin" style="rounded=1;whiteSpace=wrap;html=1;" parent="1" vertex="1">
          <mxGeometry x="183" y="-250" width="120" height="60" as="geometry" />
        </mxCell>
        <mxCell id="-W9-jeo1vUDW5sW8vt6r-22" value="name" style="ellipse;whiteSpace=wrap;html=1;" parent="1" vertex="1">
          <mxGeometry x="330" y="-405.62" width="120" height="71.25" as="geometry" />
        </mxCell>
        <mxCell id="-W9-jeo1vUDW5sW8vt6r-23" value="password" style="ellipse;whiteSpace=wrap;html=1;" parent="1" vertex="1">
          <mxGeometry x="70" y="-150" width="110" height="70" as="geometry" />
        </mxCell>
        <mxCell id="-W9-jeo1vUDW5sW8vt6r-24" value="role" style="ellipse;whiteSpace=wrap;html=1;" parent="1" vertex="1">
          <mxGeometry x="323" y="-150" width="97" height="70" as="geometry" />
        </mxCell>
        <mxCell id="-W9-jeo1vUDW5sW8vt6r-25" value="phone_number" style="ellipse;whiteSpace=wrap;html=1;" parent="1" vertex="1">
          <mxGeometry x="20" y="-404.99" width="120" height="70" as="geometry" />
        </mxCell>
        <mxCell id="-W9-jeo1vUDW5sW8vt6r-26" value="" style="endArrow=none;html=1;rounded=0;entryX=0.5;entryY=0;entryDx=0;entryDy=0;exitX=0.5;exitY=1;exitDx=0;exitDy=0;" parent="1" source="-W9-jeo1vUDW5sW8vt6r-25" target="-W9-jeo1vUDW5sW8vt6r-20" edge="1">
          <mxGeometry width="50" height="50" relative="1" as="geometry">
            <mxPoint x="1120" y="300" as="sourcePoint" />
            <mxPoint x="1030" y="480" as="targetPoint" />
          </mxGeometry>
        </mxCell>
        <mxCell id="-W9-jeo1vUDW5sW8vt6r-27" value="" style="endArrow=none;html=1;rounded=0;entryX=0.5;entryY=0;entryDx=0;entryDy=0;exitX=0.5;exitY=1;exitDx=0;exitDy=0;" parent="1" source="-W9-jeo1vUDW5sW8vt6r-22" target="-W9-jeo1vUDW5sW8vt6r-20" edge="1">
          <mxGeometry width="50" height="50" relative="1" as="geometry">
            <mxPoint x="1130" y="288" as="sourcePoint" />
            <mxPoint x="1130" y="380" as="targetPoint" />
          </mxGeometry>
        </mxCell>
        <mxCell id="-W9-jeo1vUDW5sW8vt6r-28" value="" style="endArrow=none;html=1;rounded=0;entryX=0.5;entryY=0;entryDx=0;entryDy=0;exitX=0.5;exitY=1;exitDx=0;exitDy=0;" parent="1" source="-W9-jeo1vUDW5sW8vt6r-20" target="-W9-jeo1vUDW5sW8vt6r-23" edge="1">
          <mxGeometry width="50" height="50" relative="1" as="geometry">
            <mxPoint x="1280" y="290" as="sourcePoint" />
            <mxPoint x="1130" y="380" as="targetPoint" />
          </mxGeometry>
        </mxCell>
        <mxCell id="-W9-jeo1vUDW5sW8vt6r-29" value="" style="endArrow=none;html=1;rounded=0;entryX=0.5;entryY=0;entryDx=0;entryDy=0;exitX=0.5;exitY=1;exitDx=0;exitDy=0;" parent="1" source="-W9-jeo1vUDW5sW8vt6r-20" target="-W9-jeo1vUDW5sW8vt6r-24" edge="1">
          <mxGeometry width="50" height="50" relative="1" as="geometry">
            <mxPoint x="1130" y="440" as="sourcePoint" />
            <mxPoint x="1100" y="560" as="targetPoint" />
          </mxGeometry>
        </mxCell>
        <mxCell id="-W9-jeo1vUDW5sW8vt6r-30" value="id" style="ellipse;whiteSpace=wrap;html=1;align=center;fontStyle=4;" parent="1" vertex="1">
          <mxGeometry x="193" y="-145" width="100" height="60" as="geometry" />
        </mxCell>
        <mxCell id="-W9-jeo1vUDW5sW8vt6r-31" value="" style="endArrow=none;html=1;rounded=0;entryX=0.5;entryY=1;entryDx=0;entryDy=0;exitX=0.5;exitY=0;exitDx=0;exitDy=0;" parent="1" source="-W9-jeo1vUDW5sW8vt6r-30" target="-W9-jeo1vUDW5sW8vt6r-20" edge="1">
          <mxGeometry width="50" height="50" relative="1" as="geometry">
            <mxPoint x="243" y="-120" as="sourcePoint" />
            <mxPoint x="1030" y="460" as="targetPoint" />
          </mxGeometry>
        </mxCell>
        <mxCell id="-W9-jeo1vUDW5sW8vt6r-36" value="own" style="rhombus;whiteSpace=wrap;html=1;" parent="1" vertex="1">
          <mxGeometry x="-360" y="362.5" width="80" height="75" as="geometry" />
        </mxCell>
        <mxCell id="-W9-jeo1vUDW5sW8vt6r-37" value="" style="endArrow=none;html=1;rounded=0;exitX=1;exitY=0.5;exitDx=0;exitDy=0;entryX=0;entryY=0.5;entryDx=0;entryDy=0;" parent="1" source="-W9-jeo1vUDW5sW8vt6r-36" target="A8AKB8r_Vr3IPcr5D05u-7" edge="1">
          <mxGeometry width="50" height="50" relative="1" as="geometry">
            <mxPoint x="20" y="420" as="sourcePoint" />
            <mxPoint x="70" y="370" as="targetPoint" />
          </mxGeometry>
        </mxCell>
        <mxCell id="-W9-jeo1vUDW5sW8vt6r-38" value="return" style="rhombus;whiteSpace=wrap;html=1;" parent="1" vertex="1">
          <mxGeometry x="-20" y="670" width="80" height="80" as="geometry" />
        </mxCell>
        <mxCell id="-W9-jeo1vUDW5sW8vt6r-40" value="" style="endArrow=none;html=1;rounded=0;exitX=0;exitY=0.5;exitDx=0;exitDy=0;entryX=1;entryY=0.5;entryDx=0;entryDy=0;" parent="1" source="WysHFelrEb2VY1BGsdJK-2" target="-W9-jeo1vUDW5sW8vt6r-38" edge="1">
          <mxGeometry width="50" height="50" relative="1" as="geometry">
            <mxPoint x="273" y="690" as="sourcePoint" />
            <mxPoint x="273" y="450" as="targetPoint" />
          </mxGeometry>
        </mxCell>
        <mxCell id="-W9-jeo1vUDW5sW8vt6r-41" value="render" style="rhombus;whiteSpace=wrap;html=1;" parent="1" vertex="1">
          <mxGeometry x="224.5" y="505" width="80" height="80" as="geometry" />
        </mxCell>
        <mxCell id="-W9-jeo1vUDW5sW8vt6r-45" value="" style="endArrow=none;html=1;rounded=0;exitX=0.5;exitY=1;exitDx=0;exitDy=0;entryX=0.5;entryY=0;entryDx=0;entryDy=0;" parent="1" source="-W9-jeo1vUDW5sW8vt6r-41" target="WysHFelrEb2VY1BGsdJK-2" edge="1">
          <mxGeometry width="50" height="50" relative="1" as="geometry">
            <mxPoint x="190" y="570" as="sourcePoint" />
            <mxPoint x="240" y="520" as="targetPoint" />
          </mxGeometry>
        </mxCell>
        <mxCell id="-W9-jeo1vUDW5sW8vt6r-46" value="&lt;font style=&quot;font-size: 18px;&quot;&gt;Luồng quản lý sách&lt;/font&gt;" style="text;html=1;align=center;verticalAlign=middle;whiteSpace=wrap;rounded=0;" parent="1" vertex="1">
          <mxGeometry x="650" y="-230" width="240" height="90" as="geometry" />
        </mxCell>
        <mxCell id="mBfvDNYwVXP-4Kv548yk-4" value="&lt;font style=&quot;font-size: 18px;&quot;&gt;Luồng quản lý người dùng&lt;/font&gt;" style="text;html=1;align=center;verticalAlign=middle;whiteSpace=wrap;rounded=0;" parent="1" vertex="1">
          <mxGeometry x="-430" y="420" width="240" height="90" as="geometry" />
        </mxCell>
        <mxCell id="mBfvDNYwVXP-4Kv548yk-7" value="penalties" style="rounded=0;whiteSpace=wrap;html=1;" parent="1" vertex="1">
          <mxGeometry x="200" y="-640" width="120" height="60" as="geometry" />
        </mxCell>
        <mxCell id="mBfvDNYwVXP-4Kv548yk-10" value="render" style="rhombus;whiteSpace=wrap;html=1;" parent="1" vertex="1">
          <mxGeometry x="1020" y="-290" width="80" height="80" as="geometry" />
        </mxCell>
        <mxCell id="mBfvDNYwVXP-4Kv548yk-11" value="" style="endArrow=none;html=1;rounded=0;exitX=1;exitY=0.5;exitDx=0;exitDy=0;entryX=0.5;entryY=0;entryDx=0;entryDy=0;" parent="1" source="mBfvDNYwVXP-4Kv548yk-7" target="mBfvDNYwVXP-4Kv548yk-10" edge="1">
          <mxGeometry width="50" height="50" relative="1" as="geometry">
            <mxPoint x="650" y="-570" as="sourcePoint" />
            <mxPoint x="700" y="-620" as="targetPoint" />
            <Array as="points">
              <mxPoint x="1060" y="-610" />
            </Array>
          </mxGeometry>
        </mxCell>
        <mxCell id="mBfvDNYwVXP-4Kv548yk-12" value="" style="endArrow=none;html=1;rounded=0;exitX=0.5;exitY=1;exitDx=0;exitDy=0;entryX=1;entryY=0.5;entryDx=0;entryDy=0;" parent="1" source="mBfvDNYwVXP-4Kv548yk-10" target="WysHFelrEb2VY1BGsdJK-2" edge="1">
          <mxGeometry width="50" height="50" relative="1" as="geometry">
            <mxPoint x="650" y="-170" as="sourcePoint" />
            <mxPoint x="1060" y="710" as="targetPoint" />
            <Array as="points">
              <mxPoint x="1060" y="710" />
            </Array>
          </mxGeometry>
        </mxCell>
        <mxCell id="mBfvDNYwVXP-4Kv548yk-13" value="status&lt;div&gt;&lt;br&gt;&lt;/div&gt;" style="ellipse;whiteSpace=wrap;html=1;" parent="1" vertex="1">
          <mxGeometry x="120" y="-765" width="120" height="60" as="geometry" />
        </mxCell>
        <mxCell id="mBfvDNYwVXP-4Kv548yk-14" value="" style="endArrow=none;html=1;rounded=0;exitX=0.5;exitY=0;exitDx=0;exitDy=0;entryX=0.5;entryY=1;entryDx=0;entryDy=0;" parent="1" source="mBfvDNYwVXP-4Kv548yk-7" target="mBfvDNYwVXP-4Kv548yk-13" edge="1">
          <mxGeometry width="50" height="50" relative="1" as="geometry">
            <mxPoint x="650" y="-570" as="sourcePoint" />
            <mxPoint x="700" y="-620" as="targetPoint" />
          </mxGeometry>
        </mxCell>
        <mxCell id="mBfvDNYwVXP-4Kv548yk-15" value="id_transaction" style="ellipse;whiteSpace=wrap;html=1;" parent="1" vertex="1">
          <mxGeometry x="260" y="-770" width="120" height="70" as="geometry" />
        </mxCell>
        <mxCell id="mBfvDNYwVXP-4Kv548yk-16" value="" style="endArrow=none;html=1;rounded=0;exitX=0.5;exitY=0;exitDx=0;exitDy=0;entryX=0.5;entryY=1;entryDx=0;entryDy=0;" parent="1" source="mBfvDNYwVXP-4Kv548yk-7" target="mBfvDNYwVXP-4Kv548yk-15" edge="1">
          <mxGeometry width="50" height="50" relative="1" as="geometry">
            <mxPoint x="650" y="-570" as="sourcePoint" />
            <mxPoint x="700" y="-620" as="targetPoint" />
          </mxGeometry>
        </mxCell>
        <mxCell id="mBfvDNYwVXP-4Kv548yk-17" value="fee_of_penalty" style="ellipse;whiteSpace=wrap;html=1;" parent="1" vertex="1">
          <mxGeometry x="393" y="-765" width="120" height="60" as="geometry" />
        </mxCell>
        <mxCell id="mBfvDNYwVXP-4Kv548yk-18" value="" style="endArrow=none;html=1;rounded=0;exitX=0.5;exitY=0;exitDx=0;exitDy=0;entryX=0.5;entryY=1;entryDx=0;entryDy=0;" parent="1" source="mBfvDNYwVXP-4Kv548yk-7" target="mBfvDNYwVXP-4Kv548yk-17" edge="1">
          <mxGeometry width="50" height="50" relative="1" as="geometry">
            <mxPoint x="650" y="-570" as="sourcePoint" />
            <mxPoint x="700" y="-620" as="targetPoint" />
          </mxGeometry>
        </mxCell>
        <mxCell id="mBfvDNYwVXP-4Kv548yk-20" value="&lt;div&gt;id&lt;/div&gt;" style="ellipse;whiteSpace=wrap;html=1;align=center;fontStyle=4;" parent="1" vertex="1">
          <mxGeometry y="-760" width="100" height="50" as="geometry" />
        </mxCell>
        <mxCell id="mBfvDNYwVXP-4Kv548yk-21" value="" style="endArrow=none;html=1;rounded=0;entryX=0.5;entryY=1;entryDx=0;entryDy=0;exitX=0.5;exitY=0;exitDx=0;exitDy=0;" parent="1" source="mBfvDNYwVXP-4Kv548yk-7" target="mBfvDNYwVXP-4Kv548yk-20" edge="1">
          <mxGeometry width="50" height="50" relative="1" as="geometry">
            <mxPoint x="650" y="-570" as="sourcePoint" />
            <mxPoint x="700" y="-620" as="targetPoint" />
          </mxGeometry>
        </mxCell>
        <mxCell id="mBfvDNYwVXP-4Kv548yk-22" value="" style="endArrow=none;html=1;rounded=0;exitX=1;exitY=1;exitDx=0;exitDy=0;" parent="1" source="moYUNaS-9ngvNVDCKAQK-4" target="mBfvDNYwVXP-4Kv548yk-25" edge="1">
          <mxGeometry width="50" height="50" relative="1" as="geometry">
            <mxPoint x="326" y="417.5" as="sourcePoint" />
            <mxPoint x="760" y="418" as="targetPoint" />
          </mxGeometry>
        </mxCell>
        <mxCell id="mBfvDNYwVXP-4Kv548yk-25" value="render" style="rhombus;whiteSpace=wrap;html=1;" parent="1" vertex="1">
          <mxGeometry x="880" y="380" width="80" height="80" as="geometry" />
        </mxCell>
        <mxCell id="mBfvDNYwVXP-4Kv548yk-26" value="" style="endArrow=none;html=1;rounded=0;entryX=0.5;entryY=1;entryDx=0;entryDy=0;" parent="1" source="mBfvDNYwVXP-4Kv548yk-25" target="mBfvDNYwVXP-4Kv548yk-7" edge="1">
          <mxGeometry width="50" height="50" relative="1" as="geometry">
            <mxPoint x="530" y="40" as="sourcePoint" />
            <mxPoint x="930" y="-520" as="targetPoint" />
            <Array as="points">
              <mxPoint x="920" y="-480" />
              <mxPoint x="260" y="-480" />
            </Array>
          </mxGeometry>
        </mxCell>
        <mxCell id="mBfvDNYwVXP-4Kv548yk-30" value="type_of_notification" style="ellipse;whiteSpace=wrap;html=1;" parent="1" vertex="1">
          <mxGeometry x="460" y="770" width="120" height="70" as="geometry" />
        </mxCell>
        <mxCell id="mBfvDNYwVXP-4Kv548yk-31" value="" style="endArrow=none;html=1;rounded=0;entryX=0.5;entryY=0;entryDx=0;entryDy=0;exitX=0.5;exitY=1;exitDx=0;exitDy=0;" parent="1" source="WysHFelrEb2VY1BGsdJK-2" target="mBfvDNYwVXP-4Kv548yk-30" edge="1">
          <mxGeometry width="50" height="50" relative="1" as="geometry">
            <mxPoint x="260" y="740" as="sourcePoint" />
            <mxPoint x="270" y="710" as="targetPoint" />
          </mxGeometry>
        </mxCell>
        <mxCell id="mBfvDNYwVXP-4Kv548yk-32" value="id" style="ellipse;whiteSpace=wrap;html=1;align=center;fontStyle=4;" parent="1" vertex="1">
          <mxGeometry x="213" y="775" width="100" height="65" as="geometry" />
        </mxCell>
        <mxCell id="mBfvDNYwVXP-4Kv548yk-34" value="" style="endArrow=none;html=1;rounded=0;exitX=0.5;exitY=1;exitDx=0;exitDy=0;entryX=0.5;entryY=0;entryDx=0;entryDy=0;" parent="1" source="WysHFelrEb2VY1BGsdJK-2" target="mBfvDNYwVXP-4Kv548yk-32" edge="1">
          <mxGeometry width="50" height="50" relative="1" as="geometry">
            <mxPoint x="220" y="760" as="sourcePoint" />
            <mxPoint x="270" y="710" as="targetPoint" />
          </mxGeometry>
        </mxCell>
        <mxCell id="mBfvDNYwVXP-4Kv548yk-35" value="n" style="text;strokeColor=none;fillColor=none;align=left;verticalAlign=middle;spacingLeft=4;spacingRight=4;overflow=hidden;points=[[0,0.5],[1,0.5]];portConstraint=eastwest;rotatable=0;whiteSpace=wrap;html=1;" parent="1" vertex="1">
          <mxGeometry x="270" y="-576" width="80" height="30" as="geometry" />
        </mxCell>
        <mxCell id="mBfvDNYwVXP-4Kv548yk-36" value="1" style="text;strokeColor=none;fillColor=none;align=left;verticalAlign=middle;spacingLeft=4;spacingRight=4;overflow=hidden;points=[[0,0.5],[1,0.5]];portConstraint=eastwest;rotatable=0;whiteSpace=wrap;html=1;" parent="1" vertex="1">
          <mxGeometry x="270" y="437.5" width="57" height="30" as="geometry" />
        </mxCell>
        <mxCell id="mBfvDNYwVXP-4Kv548yk-40" value="&lt;font style=&quot;font-size: 18px;&quot;&gt;Luồng quản lý vi phạm&lt;/font&gt;" style="text;html=1;align=center;verticalAlign=middle;whiteSpace=wrap;rounded=0;" parent="1" vertex="1">
          <mxGeometry x="640" y="-600" width="240" height="90" as="geometry" />
        </mxCell>
        <mxCell id="mBfvDNYwVXP-4Kv548yk-41" value="reason&amp;nbsp;" style="ellipse;whiteSpace=wrap;html=1;" parent="1" vertex="1">
          <mxGeometry x="530" y="-765" width="120" height="60" as="geometry" />
        </mxCell>
        <mxCell id="mBfvDNYwVXP-4Kv548yk-42" value="" style="endArrow=none;html=1;rounded=0;exitX=0.5;exitY=0;exitDx=0;exitDy=0;entryX=0.5;entryY=1;entryDx=0;entryDy=0;" parent="1" source="mBfvDNYwVXP-4Kv548yk-7" target="mBfvDNYwVXP-4Kv548yk-41" edge="1">
          <mxGeometry width="50" height="50" relative="1" as="geometry">
            <mxPoint x="240" y="-470" as="sourcePoint" />
            <mxPoint x="290" y="-520" as="targetPoint" />
          </mxGeometry>
        </mxCell>
        <mxCell id="mBfvDNYwVXP-4Kv548yk-43" value="&lt;span style=&quot;color: rgb(32, 33, 36); font-family: Roboto, arial, sans-serif; font-size: 13px; text-align: left; white-space-collapse: preserve; background-color: rgb(255, 255, 255);&quot;&gt;incidents&lt;/span&gt;" style="rounded=0;whiteSpace=wrap;html=1;" parent="1" vertex="1">
          <mxGeometry x="-400" y="-636" width="120" height="60" as="geometry" />
        </mxCell>
        <mxCell id="mBfvDNYwVXP-4Kv548yk-45" value="" style="endArrow=none;html=1;rounded=0;exitX=1;exitY=0.5;exitDx=0;exitDy=0;entryX=0;entryY=0.5;entryDx=0;entryDy=0;" parent="1" source="mBfvDNYwVXP-4Kv548yk-43" target="mBfvDNYwVXP-4Kv548yk-46" edge="1">
          <mxGeometry width="50" height="50" relative="1" as="geometry">
            <mxPoint x="100" y="-490" as="sourcePoint" />
            <mxPoint x="-40" y="-540" as="targetPoint" />
          </mxGeometry>
        </mxCell>
        <mxCell id="mBfvDNYwVXP-4Kv548yk-46" value="return" style="rhombus;whiteSpace=wrap;html=1;" parent="1" vertex="1">
          <mxGeometry x="-30" y="-636" width="80" height="56" as="geometry" />
        </mxCell>
        <mxCell id="mBfvDNYwVXP-4Kv548yk-47" value="" style="endArrow=none;html=1;rounded=0;exitX=1;exitY=0.5;exitDx=0;exitDy=0;entryX=0.5;entryY=0;entryDx=0;entryDy=0;" parent="1" source="mBfvDNYwVXP-4Kv548yk-46" target="-W9-jeo1vUDW5sW8vt6r-20" edge="1">
          <mxGeometry width="50" height="50" relative="1" as="geometry">
            <mxPoint x="100" y="-490" as="sourcePoint" />
            <mxPoint x="150" y="-540" as="targetPoint" />
            <Array as="points">
              <mxPoint x="90" y="-540" />
            </Array>
          </mxGeometry>
        </mxCell>
        <mxCell id="mBfvDNYwVXP-4Kv548yk-48" value="report" style="rhombus;whiteSpace=wrap;html=1;" parent="1" vertex="1">
          <mxGeometry x="-380" y="-270" width="80" height="80" as="geometry" />
        </mxCell>
        <mxCell id="mBfvDNYwVXP-4Kv548yk-49" value="" style="endArrow=none;html=1;rounded=0;exitX=0.5;exitY=0;exitDx=0;exitDy=0;entryX=0.5;entryY=1;entryDx=0;entryDy=0;" parent="1" source="mBfvDNYwVXP-4Kv548yk-48" target="mBfvDNYwVXP-4Kv548yk-43" edge="1">
          <mxGeometry width="50" height="50" relative="1" as="geometry">
            <mxPoint x="100" y="-400" as="sourcePoint" />
            <mxPoint x="150" y="-450" as="targetPoint" />
          </mxGeometry>
        </mxCell>
        <mxCell id="mBfvDNYwVXP-4Kv548yk-51" value="" style="endArrow=none;html=1;rounded=0;exitX=0.5;exitY=0;exitDx=0;exitDy=0;entryX=0.5;entryY=1;entryDx=0;entryDy=0;" parent="1" source="A8AKB8r_Vr3IPcr5D05u-7" target="mBfvDNYwVXP-4Kv548yk-48" edge="1">
          <mxGeometry width="50" height="50" relative="1" as="geometry">
            <mxPoint x="100" y="120" as="sourcePoint" />
            <mxPoint x="-226.93877551020432" y="66.93877551020387" as="targetPoint" />
            <Array as="points">
              <mxPoint x="-340" y="160" />
            </Array>
          </mxGeometry>
        </mxCell>
        <mxCell id="mBfvDNYwVXP-4Kv548yk-54" value="id" style="ellipse;whiteSpace=wrap;html=1;align=center;fontStyle=4;" parent="1" vertex="1">
          <mxGeometry x="-260" y="-765" width="100" height="60" as="geometry" />
        </mxCell>
        <mxCell id="mBfvDNYwVXP-4Kv548yk-55" value="" style="endArrow=none;html=1;rounded=0;exitX=0.5;exitY=1;exitDx=0;exitDy=0;entryX=0.5;entryY=0;entryDx=0;entryDy=0;" parent="1" source="mBfvDNYwVXP-4Kv548yk-54" target="mBfvDNYwVXP-4Kv548yk-43" edge="1">
          <mxGeometry width="50" height="50" relative="1" as="geometry">
            <mxPoint x="-230.000000000005" y="-414" as="sourcePoint" />
            <mxPoint x="-320" y="-520" as="targetPoint" />
          </mxGeometry>
        </mxCell>
        <mxCell id="mBfvDNYwVXP-4Kv548yk-56" value="content" style="ellipse;whiteSpace=wrap;html=1;" parent="1" vertex="1">
          <mxGeometry x="-400" y="-765" width="120" height="70" as="geometry" />
        </mxCell>
        <mxCell id="mBfvDNYwVXP-4Kv548yk-57" value="" style="endArrow=none;html=1;rounded=0;exitX=0.5;exitY=0;exitDx=0;exitDy=0;entryX=0.5;entryY=1;entryDx=0;entryDy=0;" parent="1" source="mBfvDNYwVXP-4Kv548yk-43" target="mBfvDNYwVXP-4Kv548yk-56" edge="1">
          <mxGeometry width="50" height="50" relative="1" as="geometry">
            <mxPoint x="100" y="-580" as="sourcePoint" />
            <mxPoint x="150" y="-630" as="targetPoint" />
          </mxGeometry>
        </mxCell>
        <mxCell id="mBfvDNYwVXP-4Kv548yk-58" value="status" style="ellipse;whiteSpace=wrap;html=1;" parent="1" vertex="1">
          <mxGeometry x="-533" y="-765" width="120" height="70" as="geometry" />
        </mxCell>
        <mxCell id="mBfvDNYwVXP-4Kv548yk-59" value="" style="endArrow=none;html=1;rounded=0;entryX=0.5;entryY=1;entryDx=0;entryDy=0;exitX=0.5;exitY=0;exitDx=0;exitDy=0;" parent="1" source="mBfvDNYwVXP-4Kv548yk-43" target="mBfvDNYwVXP-4Kv548yk-58" edge="1">
          <mxGeometry width="50" height="50" relative="1" as="geometry">
            <mxPoint x="100" y="-580" as="sourcePoint" />
            <mxPoint x="150" y="-630" as="targetPoint" />
          </mxGeometry>
        </mxCell>
        <mxCell id="mBfvDNYwVXP-4Kv548yk-62" value="&lt;span style=&quot;color: rgb(0, 0, 0); font-family: Helvetica; font-size: 18px; font-style: normal; font-variant-ligatures: normal; font-variant-caps: normal; font-weight: 400; letter-spacing: normal; orphans: 2; text-align: center; text-indent: 0px; text-transform: none; widows: 2; word-spacing: 0px; -webkit-text-stroke-width: 0px; white-space: normal; background-color: rgb(251, 251, 251); text-decoration-thickness: initial; text-decoration-style: initial; text-decoration-color: initial; display: inline !important; float: none;&quot;&gt;Luồng báo cáo sự cố&lt;/span&gt;" style="text;whiteSpace=wrap;html=1;" parent="1" vertex="1">
          <mxGeometry x="-530" y="-480" width="240" height="50" as="geometry" />
        </mxCell>
        <mxCell id="mBfvDNYwVXP-4Kv548yk-63" value="categories" style="rounded=1;whiteSpace=wrap;html=1;" parent="1" vertex="1">
          <mxGeometry x="580" y="-350" width="120" height="60" as="geometry" />
        </mxCell>
        <mxCell id="mBfvDNYwVXP-4Kv548yk-64" value="" style="endArrow=none;html=1;rounded=0;exitX=0.5;exitY=0;exitDx=0;exitDy=0;entryX=0.5;entryY=1;entryDx=0;entryDy=0;" parent="1" source="A8AKB8r_Vr3IPcr5D05u-17" target="mBfvDNYwVXP-4Kv548yk-65" edge="1">
          <mxGeometry width="50" height="50" relative="1" as="geometry">
            <mxPoint x="300" y="30" as="sourcePoint" />
            <mxPoint x="840" y="60" as="targetPoint" />
          </mxGeometry>
        </mxCell>
        <mxCell id="mBfvDNYwVXP-4Kv548yk-65" value="own" style="rhombus;whiteSpace=wrap;html=1;" parent="1" vertex="1">
          <mxGeometry x="600" y="-190" width="80" height="67.5" as="geometry" />
        </mxCell>
        <mxCell id="mBfvDNYwVXP-4Kv548yk-66" value="" style="endArrow=none;html=1;rounded=0;exitX=0.5;exitY=1;exitDx=0;exitDy=0;entryX=0.5;entryY=0;entryDx=0;entryDy=0;" parent="1" source="mBfvDNYwVXP-4Kv548yk-63" target="mBfvDNYwVXP-4Kv548yk-65" edge="1">
          <mxGeometry width="50" height="50" relative="1" as="geometry">
            <mxPoint x="750" y="170" as="sourcePoint" />
            <mxPoint x="1010" y="60" as="targetPoint" />
          </mxGeometry>
        </mxCell>
        <mxCell id="mBfvDNYwVXP-4Kv548yk-67" value="name" style="ellipse;whiteSpace=wrap;html=1;" parent="1" vertex="1">
          <mxGeometry x="520" y="-440" width="120" height="52.5" as="geometry" />
        </mxCell>
        <mxCell id="mBfvDNYwVXP-4Kv548yk-68" value="Id" style="ellipse;whiteSpace=wrap;html=1;align=center;fontStyle=4;" parent="1" vertex="1">
          <mxGeometry x="670" y="-443.75" width="100" height="60" as="geometry" />
        </mxCell>
        <mxCell id="mBfvDNYwVXP-4Kv548yk-69" value="" style="endArrow=none;html=1;rounded=0;exitX=0.5;exitY=0;exitDx=0;exitDy=0;entryX=0.5;entryY=1;entryDx=0;entryDy=0;" parent="1" source="mBfvDNYwVXP-4Kv548yk-63" target="mBfvDNYwVXP-4Kv548yk-67" edge="1">
          <mxGeometry width="50" height="50" relative="1" as="geometry">
            <mxPoint x="1000" y="-20" as="sourcePoint" />
            <mxPoint x="1140" y="-60" as="targetPoint" />
          </mxGeometry>
        </mxCell>
        <mxCell id="mBfvDNYwVXP-4Kv548yk-70" value="" style="endArrow=none;html=1;rounded=0;exitX=0.5;exitY=0;exitDx=0;exitDy=0;entryX=0.5;entryY=1;entryDx=0;entryDy=0;" parent="1" source="mBfvDNYwVXP-4Kv548yk-63" target="mBfvDNYwVXP-4Kv548yk-68" edge="1">
          <mxGeometry width="50" height="50" relative="1" as="geometry">
            <mxPoint x="1200" y="40" as="sourcePoint" />
            <mxPoint x="1200" y="-90" as="targetPoint" />
          </mxGeometry>
        </mxCell>
        <mxCell id="mBfvDNYwVXP-4Kv548yk-71" value="1" style="text;html=1;align=center;verticalAlign=middle;whiteSpace=wrap;rounded=0;" parent="1" vertex="1">
          <mxGeometry x="620" y="-220" width="60" height="30" as="geometry" />
        </mxCell>
        <mxCell id="mBfvDNYwVXP-4Kv548yk-73" value="n" style="text;html=1;align=center;verticalAlign=middle;whiteSpace=wrap;rounded=0;" parent="1" vertex="1">
          <mxGeometry x="620" y="-122.5" width="60" height="30" as="geometry" />
        </mxCell>
        <mxCell id="mBfvDNYwVXP-4Kv548yk-74" value="warehouses" style="rounded=1;whiteSpace=wrap;html=1;" parent="1" vertex="1">
          <mxGeometry x="-160" y="30" width="120" height="60" as="geometry" />
        </mxCell>
        <mxCell id="mBfvDNYwVXP-4Kv548yk-75" value="" style="endArrow=none;html=1;rounded=0;exitX=0;exitY=0.5;exitDx=0;exitDy=0;" parent="1" source="A8AKB8r_Vr3IPcr5D05u-17" target="mBfvDNYwVXP-4Kv548yk-76" edge="1">
          <mxGeometry width="50" height="50" relative="1" as="geometry">
            <mxPoint x="220" as="sourcePoint" />
            <mxPoint x="420" y="60" as="targetPoint" />
          </mxGeometry>
        </mxCell>
        <mxCell id="mBfvDNYwVXP-4Kv548yk-76" value="list" style="rhombus;whiteSpace=wrap;html=1;" parent="1" vertex="1">
          <mxGeometry x="233" y="25" width="80" height="70" as="geometry" />
        </mxCell>
        <mxCell id="mBfvDNYwVXP-4Kv548yk-77" value="" style="endArrow=none;html=1;rounded=0;exitX=1;exitY=0.5;exitDx=0;exitDy=0;entryX=0;entryY=0.5;entryDx=0;entryDy=0;" parent="1" source="mBfvDNYwVXP-4Kv548yk-74" target="mBfvDNYwVXP-4Kv548yk-76" edge="1">
          <mxGeometry width="50" height="50" relative="1" as="geometry">
            <mxPoint x="90" as="sourcePoint" />
            <mxPoint x="140" y="-50" as="targetPoint" />
          </mxGeometry>
        </mxCell>
        <mxCell id="mBfvDNYwVXP-4Kv548yk-78" value="id_book" style="ellipse;whiteSpace=wrap;html=1;" parent="1" vertex="1">
          <mxGeometry x="-160" y="-76.25" width="120" height="60" as="geometry" />
        </mxCell>
        <mxCell id="mBfvDNYwVXP-4Kv548yk-79" value="" style="endArrow=none;html=1;rounded=0;entryX=0.5;entryY=1;entryDx=0;entryDy=0;exitX=0.5;exitY=0;exitDx=0;exitDy=0;" parent="1" source="mBfvDNYwVXP-4Kv548yk-74" target="mBfvDNYwVXP-4Kv548yk-78" edge="1">
          <mxGeometry width="50" height="50" relative="1" as="geometry">
            <mxPoint x="90" as="sourcePoint" />
            <mxPoint x="140" y="-50" as="targetPoint" />
          </mxGeometry>
        </mxCell>
        <mxCell id="mBfvDNYwVXP-4Kv548yk-80" value="price" style="ellipse;whiteSpace=wrap;html=1;" parent="1" vertex="1">
          <mxGeometry x="-30" y="-76.25" width="120" height="60" as="geometry" />
        </mxCell>
        <mxCell id="mBfvDNYwVXP-4Kv548yk-82" value="quantity" style="ellipse;whiteSpace=wrap;html=1;" parent="1" vertex="1">
          <mxGeometry x="-290" y="-80" width="120" height="67.5" as="geometry" />
        </mxCell>
        <mxCell id="mBfvDNYwVXP-4Kv548yk-83" value="" style="endArrow=none;html=1;rounded=0;exitX=0.5;exitY=0;exitDx=0;exitDy=0;entryX=0.5;entryY=1;entryDx=0;entryDy=0;" parent="1" source="mBfvDNYwVXP-4Kv548yk-74" target="mBfvDNYwVXP-4Kv548yk-80" edge="1">
          <mxGeometry width="50" height="50" relative="1" as="geometry">
            <mxPoint x="-50" as="sourcePoint" />
            <mxPoint y="-50" as="targetPoint" />
          </mxGeometry>
        </mxCell>
        <mxCell id="mBfvDNYwVXP-4Kv548yk-84" value="" style="endArrow=none;html=1;rounded=0;exitX=0.5;exitY=0;exitDx=0;exitDy=0;entryX=0.5;entryY=1;entryDx=0;entryDy=0;" parent="1" source="mBfvDNYwVXP-4Kv548yk-74" target="mBfvDNYwVXP-4Kv548yk-82" edge="1">
          <mxGeometry width="50" height="50" relative="1" as="geometry">
            <mxPoint x="-90" y="40" as="sourcePoint" />
            <mxPoint x="50" y="-26" as="targetPoint" />
          </mxGeometry>
        </mxCell>
        <mxCell id="mBfvDNYwVXP-4Kv548yk-86" value="id" style="ellipse;whiteSpace=wrap;html=1;align=center;fontStyle=4;" parent="1" vertex="1">
          <mxGeometry x="-150" y="160" width="100" height="50" as="geometry" />
        </mxCell>
        <mxCell id="mBfvDNYwVXP-4Kv548yk-87" value="" style="endArrow=none;html=1;rounded=0;exitX=0.5;exitY=1;exitDx=0;exitDy=0;entryX=0.5;entryY=0;entryDx=0;entryDy=0;" parent="1" source="mBfvDNYwVXP-4Kv548yk-74" target="mBfvDNYwVXP-4Kv548yk-86" edge="1">
          <mxGeometry width="50" height="50" relative="1" as="geometry">
            <mxPoint x="-50" as="sourcePoint" />
            <mxPoint y="-50" as="targetPoint" />
          </mxGeometry>
        </mxCell>
        <mxCell id="mBfvDNYwVXP-4Kv548yk-90" value="&lt;font style=&quot;font-size: 18px;&quot;&gt;Luồng báo cáo thống kê&lt;/font&gt;" style="text;html=1;align=center;verticalAlign=middle;whiteSpace=wrap;rounded=0;" parent="1" vertex="1">
          <mxGeometry x="153" y="-39.99999999999999" width="240" height="90" as="geometry" />
        </mxCell>
        <mxCell id="mBfvDNYwVXP-4Kv548yk-91" value="quantity" style="ellipse;whiteSpace=wrap;html=1;" parent="1" vertex="1">
          <mxGeometry x="690" y="128.75" width="100" height="52.5" as="geometry" />
        </mxCell>
        <mxCell id="mBfvDNYwVXP-4Kv548yk-93" value="" style="endArrow=none;html=1;rounded=0;exitX=0.5;exitY=1;exitDx=0;exitDy=0;entryX=0.5;entryY=0;entryDx=0;entryDy=0;" parent="1" source="A8AKB8r_Vr3IPcr5D05u-17" target="mBfvDNYwVXP-4Kv548yk-91" edge="1">
          <mxGeometry width="50" height="50" relative="1" as="geometry">
            <mxPoint x="-90" y="40" as="sourcePoint" />
            <mxPoint x="-220" y="-2" as="targetPoint" />
          </mxGeometry>
        </mxCell>
        <mxCell id="mBfvDNYwVXP-4Kv548yk-94" value="1" style="text;html=1;align=center;verticalAlign=middle;whiteSpace=wrap;rounded=0;" parent="1" vertex="1">
          <mxGeometry x="-120" y="467.5" width="60" height="30" as="geometry" />
        </mxCell>
        <mxCell id="moYUNaS-9ngvNVDCKAQK-1" value="avatar&lt;div&gt;&lt;br&gt;&lt;/div&gt;" style="ellipse;whiteSpace=wrap;html=1;" parent="1" vertex="1">
          <mxGeometry x="490" y="128.75" width="100" height="52.5" as="geometry" />
        </mxCell>
        <mxCell id="moYUNaS-9ngvNVDCKAQK-2" value="" style="endArrow=none;html=1;rounded=0;exitX=0.5;exitY=1;exitDx=0;exitDy=0;entryX=0.5;entryY=0;entryDx=0;entryDy=0;" parent="1" source="A8AKB8r_Vr3IPcr5D05u-17" target="moYUNaS-9ngvNVDCKAQK-1" edge="1">
          <mxGeometry width="50" height="50" relative="1" as="geometry">
            <mxPoint x="650" y="100" as="sourcePoint" />
            <mxPoint x="770" y="153" as="targetPoint" />
          </mxGeometry>
        </mxCell>
        <mxCell id="moYUNaS-9ngvNVDCKAQK-4" value="Transactions" style="rhombus;whiteSpace=wrap;html=1;" parent="1" vertex="1">
          <mxGeometry x="206" y="361.25" width="117" height="77.5" as="geometry" />
        </mxCell>
        <mxCell id="moYUNaS-9ngvNVDCKAQK-5" value="price" style="ellipse;whiteSpace=wrap;html=1;" parent="1" vertex="1">
          <mxGeometry x="650" y="232.5" width="120" height="60" as="geometry" />
        </mxCell>
        <mxCell id="moYUNaS-9ngvNVDCKAQK-6" value="" style="endArrow=none;html=1;rounded=0;entryX=0.5;entryY=0;entryDx=0;entryDy=0;exitX=0.5;exitY=1;exitDx=0;exitDy=0;" parent="1" source="A8AKB8r_Vr3IPcr5D05u-17" target="moYUNaS-9ngvNVDCKAQK-5" edge="1">
          <mxGeometry width="50" height="50" relative="1" as="geometry">
            <mxPoint x="640" y="90" as="sourcePoint" />
            <mxPoint x="40" y="-6" as="targetPoint" />
          </mxGeometry>
        </mxCell>
        <mxCell id="DW-SXriuLm68sHABnlRS-1" value="&lt;p data-pm-slice=&quot;1 1 []&quot;&gt;is_purchased&amp;nbsp;&lt;/p&gt;" style="ellipse;whiteSpace=wrap;html=1;" parent="1" vertex="1">
          <mxGeometry x="453" y="222.5" width="120" height="80" as="geometry" />
        </mxCell>
        <mxCell id="DW-SXriuLm68sHABnlRS-2" value="" style="endArrow=none;html=1;rounded=0;entryX=0.5;entryY=1;entryDx=0;entryDy=0;exitX=0.5;exitY=0;exitDx=0;exitDy=0;" parent="1" source="moYUNaS-9ngvNVDCKAQK-4" target="DW-SXriuLm68sHABnlRS-1" edge="1">
          <mxGeometry width="50" height="50" relative="1" as="geometry">
            <mxPoint x="260" y="150" as="sourcePoint" />
            <mxPoint x="310" y="100" as="targetPoint" />
          </mxGeometry>
        </mxCell>
        <mxCell id="17anueQliBp5uL2Nj84k-1" value="sale_value" style="ellipse;whiteSpace=wrap;html=1;" parent="1" vertex="1">
          <mxGeometry x="30" y="292.5" width="120" height="52.5" as="geometry" />
        </mxCell>
        <mxCell id="17anueQliBp5uL2Nj84k-2" value="" style="endArrow=none;html=1;rounded=0;entryX=0.5;entryY=1;entryDx=0;entryDy=0;exitX=0.5;exitY=0;exitDx=0;exitDy=0;" parent="1" source="moYUNaS-9ngvNVDCKAQK-4" target="17anueQliBp5uL2Nj84k-1" edge="1">
          <mxGeometry width="50" height="50" relative="1" as="geometry">
            <mxPoint x="275" y="371" as="sourcePoint" />
            <mxPoint x="523" y="313" as="targetPoint" />
          </mxGeometry>
        </mxCell>
        <mxCell id="V5G5j2tV0NXQr-inmDLf-1" value="promotion_value" style="ellipse;whiteSpace=wrap;html=1;" parent="1" vertex="1">
          <mxGeometry x="760" y="33.75" width="120" height="52.5" as="geometry" />
        </mxCell>
        <mxCell id="V5G5j2tV0NXQr-inmDLf-2" value="" style="endArrow=none;html=1;rounded=0;entryX=0;entryY=0.5;entryDx=0;entryDy=0;exitX=1;exitY=0.5;exitDx=0;exitDy=0;" parent="1" source="A8AKB8r_Vr3IPcr5D05u-17" target="V5G5j2tV0NXQr-inmDLf-1" edge="1">
          <mxGeometry width="50" height="50" relative="1" as="geometry">
            <mxPoint x="650" y="100" as="sourcePoint" />
            <mxPoint x="720" y="243" as="targetPoint" />
          </mxGeometry>
        </mxCell>
        <mxCell id="V5G5j2tV0NXQr-inmDLf-4" value="&lt;p data-pm-slice=&quot;1 1 []&quot;&gt;transaction_volume&lt;/p&gt;" style="ellipse;whiteSpace=wrap;html=1;" parent="1" vertex="1">
          <mxGeometry x="470" y="320" width="120" height="70" as="geometry" />
        </mxCell>
        <mxCell id="V5G5j2tV0NXQr-inmDLf-5" value="" style="endArrow=none;html=1;rounded=0;entryX=0;entryY=0.5;entryDx=0;entryDy=0;exitX=1;exitY=0;exitDx=0;exitDy=0;" parent="1" source="moYUNaS-9ngvNVDCKAQK-4" target="V5G5j2tV0NXQr-inmDLf-4" edge="1">
          <mxGeometry width="50" height="50" relative="1" as="geometry">
            <mxPoint x="304" y="429" as="sourcePoint" />
            <mxPoint x="433" y="466" as="targetPoint" />
          </mxGeometry>
        </mxCell>
        <mxCell id="dzrYzidFFtrxbFtTvhMx-2" value="role" style="rounded=1;whiteSpace=wrap;html=1;" parent="1" vertex="1">
          <mxGeometry x="-1010" y="370" width="120" height="60" as="geometry" />
        </mxCell>
        <mxCell id="dzrYzidFFtrxbFtTvhMx-4" value="role_account" style="rhombus;whiteSpace=wrap;html=1;" parent="1" vertex="1">
          <mxGeometry x="-810" y="355" width="120" height="90" as="geometry" />
        </mxCell>
        <mxCell id="dzrYzidFFtrxbFtTvhMx-6" value="name" style="ellipse;whiteSpace=wrap;html=1;" parent="1" vertex="1">
          <mxGeometry x="-950" y="271.88" width="100" height="46.25" as="geometry" />
        </mxCell>
        <mxCell id="dzrYzidFFtrxbFtTvhMx-8" value="id" style="ellipse;whiteSpace=wrap;html=1;align=center;fontStyle=4;" parent="1" vertex="1">
          <mxGeometry x="-1080" y="271.88" width="100" height="40" as="geometry" />
        </mxCell>
        <mxCell id="dzrYzidFFtrxbFtTvhMx-9" value="" style="endArrow=classic;html=1;rounded=0;exitX=0.5;exitY=0;exitDx=0;exitDy=0;entryX=0.5;entryY=1;entryDx=0;entryDy=0;" parent="1" source="dzrYzidFFtrxbFtTvhMx-2" target="dzrYzidFFtrxbFtTvhMx-6" edge="1">
          <mxGeometry width="50" height="50" relative="1" as="geometry">
            <mxPoint x="-740" y="480" as="sourcePoint" />
            <mxPoint x="-690" y="430" as="targetPoint" />
          </mxGeometry>
        </mxCell>
        <mxCell id="dzrYzidFFtrxbFtTvhMx-10" value="" style="endArrow=classic;html=1;rounded=0;exitX=0.5;exitY=0;exitDx=0;exitDy=0;entryX=0.5;entryY=1;entryDx=0;entryDy=0;" parent="1" source="dzrYzidFFtrxbFtTvhMx-2" target="dzrYzidFFtrxbFtTvhMx-8" edge="1">
          <mxGeometry width="50" height="50" relative="1" as="geometry">
            <mxPoint x="-940" y="380" as="sourcePoint" />
            <mxPoint x="-890" y="328" as="targetPoint" />
          </mxGeometry>
        </mxCell>
        <mxCell id="dzrYzidFFtrxbFtTvhMx-16" value="" style="endArrow=none;html=1;rounded=0;exitX=1;exitY=0.5;exitDx=0;exitDy=0;entryX=0;entryY=0.5;entryDx=0;entryDy=0;" parent="1" source="dzrYzidFFtrxbFtTvhMx-4" target="-W9-jeo1vUDW5sW8vt6r-1" edge="1">
          <mxGeometry width="50" height="50" relative="1" as="geometry">
            <mxPoint x="-690" y="400" as="sourcePoint" />
            <mxPoint x="-610" y="400" as="targetPoint" />
          </mxGeometry>
        </mxCell>
        <mxCell id="dzrYzidFFtrxbFtTvhMx-17" value="" style="endArrow=none;html=1;rounded=0;exitX=0;exitY=0.5;exitDx=0;exitDy=0;entryX=1;entryY=0.5;entryDx=0;entryDy=0;" parent="1" source="dzrYzidFFtrxbFtTvhMx-4" target="dzrYzidFFtrxbFtTvhMx-2" edge="1">
          <mxGeometry width="50" height="50" relative="1" as="geometry">
            <mxPoint x="-680" y="410" as="sourcePoint" />
            <mxPoint x="-590" y="410" as="targetPoint" />
          </mxGeometry>
        </mxCell>
        <mxCell id="dzrYzidFFtrxbFtTvhMx-18" value="n" style="text;strokeColor=none;fillColor=none;align=left;verticalAlign=middle;spacingLeft=4;spacingRight=4;overflow=hidden;points=[[0,0.5],[1,0.5]];portConstraint=eastwest;rotatable=0;whiteSpace=wrap;html=1;" parent="1" vertex="1">
          <mxGeometry x="-890" y="370" width="80" height="30" as="geometry" />
        </mxCell>
        <mxCell id="dzrYzidFFtrxbFtTvhMx-19" value="n" style="text;strokeColor=none;fillColor=none;align=left;verticalAlign=middle;spacingLeft=4;spacingRight=4;overflow=hidden;points=[[0,0.5],[1,0.5]];portConstraint=eastwest;rotatable=0;whiteSpace=wrap;html=1;" parent="1" vertex="1">
          <mxGeometry x="-620" y="370" width="80" height="30" as="geometry" />
        </mxCell>
      </root>
    </mxGraphModel>
  </diagram>
</mxfile>
